<svg xmlns="http://www.w3.org/2000/svg" viewBox="0 0 66 66">
    <path d="M28.85,58.14c.14-3.24.22-10.65.22-15.12V39.64c0-4-.08-6.2-.22-9.08L23,29.92V27.4l10.87-4.32,1.08.72-.22,9.72V43c0,4.47.07,11.88.22,15.12Zm11.09-2.52v2.52H23.38V55.62l7.92-1.44h1.44ZM27.05,10.4A4.48,4.48,0,0,1,31.8,5.87a4.54,4.54,0,1,1,0,9.07A4.53,4.53,0,0,1,27.05,10.4Z" />
    <path d="M35.28,51H30.23V48.27h5.82c6.27,0,8.72-3.85,8.72-9.48S42,29.73,35.84,29.73H30.23V27h6.58c8.47,0,12.81,4.86,12.81,11.79C49.62,45.43,45.69,51,35.28,51Z" />
    <rect fill="none" width="66" height="66" />
</svg>